<svg xmlns="http://www.w3.org/2000/svg" width="512" height="512" data-name="Filled stroke cutting expand" viewBox="0 0 512 512"><path fill="#666" d="M64,488V380.522a30,30,0,0,1,19.127-27.96L208,304h96l124.873,48.562A30,30,0,0,1,448,380.522V488Z"></path><path fill="#80262d" d="M224,104H176l-1.394-4.183a20,20,0,0,1,13.479-25.556L224,64Z"></path><polygon fill="#ffd4cf" points="312 312 256 384 200 312 216 248 296 248 312 312"></polygon><path fill="#fbb8b0" d="M296,248H216l-6.182,24.729,20.726,20.727a36,36,0,0,0,50.912,0l20.726-20.727Z"></path><path fill="#fff" d="M184,104V215.159a20,20,0,0,0,7.048,15.24l36.608,31.111L224,264.284l17.858,17.858a20,20,0,0,0,28.284,0L288,264.284l-3.712-2.817,36.728-31.481A20,20,0,0,0,328,214.8V104Z"></path><path fill="#ffd4cf" d="M328,104H184V215.159a20,20,0,0,0,7.048,15.24L234.4,267.24A20,20,0,0,0,247.351,272H264.6a20,20,0,0,0,13.015-4.815l43.4-37.2A20,20,0,0,0,328,214.8Z"></path><polygon fill="#80262d" points="184 96 184 136 200 136 216 104 184 96"></polygon><polygon fill="#80262d" points="328 136 312 136 296 104 328 104 328 136"></polygon><path fill="#ffd4cf" d="M152,136h22a10,10,0,0,1,10,10v28a10,10,0,0,1-10,10H152a0,0,0,0,1,0,0V136A0,0,0,0,1,152,136Z" transform="rotate(-180 168 160)"></path><path fill="#ffd4cf" d="M338,136h22a0,0,0,0,1,0,0v48a0,0,0,0,1,0,0H338a10,10,0,0,1-10-10V146A10,10,0,0,1,338,136Z" transform="rotate(-180 344 160)"></path><path fill="#b33f42" d="M228,104h93.585a20,20,0,0,0,18.973-13.675L352,56,274.744,26.286a40,40,0,0,0-45.088,11.727L208,64V84A20,20,0,0,0,228,104Z"></path><polygon fill="#f2f2f2" points="192 304 152 368 232 352 192 304"></polygon><polygon fill="#b33f42" points="184 368 184 488 208 488 208 352 184 368"></polygon><polygon fill="#f2f2f2" points="320 304 360 368 280 352 320 304"></polygon><polygon fill="#b33f42" points="328 368 328 488 304 488 304 352 328 368"></polygon><path fill="#b33f42" d="M288,264.284l-17.858,17.858a20,20,0,0,1-28.284,0L224,264.284,256,240Z"></path><g><path d="M456,408V380.522a37.763,37.763,0,0,0-24.228-35.416L330.514,305.727l-3.73-5.967a7.99,7.99,0,0,0-10.33-2.926L305.666,253.68l20.556-17.619A27.966,27.966,0,0,0,336,214.8V192h14a18.021,18.021,0,0,0,18-18V146a18.021,18.021,0,0,0-18-18H336V108.4a27.963,27.963,0,0,0,12.148-15.16L359.59,58.912a8,8,0,0,0-4.718-10L277.616,19.2a47.733,47.733,0,0,0-46.033,6.4l9.6,12.8a31.824,31.824,0,0,1,30.687-4.264l70.121,26.97-9.024,27.071A11.984,11.984,0,0,1,324.6,96H224.99A12.021,12.021,0,0,1,216,84.382v-17.1L230.146,50.3,217.854,40.061l-16,19.2a8,8,0,0,0-1.622,3.209l-14.344,4.1a28,28,0,0,0-18.872,35.777l1.394,4.184A8,8,0,0,0,176,112v16H162a18.021,18.021,0,0,0-18,18v28a18.021,18.021,0,0,0,18,18h14v23.159a27.951,27.951,0,0,0,9.868,21.335l20.424,17.357-10.746,42.983a7.99,7.99,0,0,0-10.33,2.926l-3.73,5.968L133.1,324.544l5.8,14.912,28.412-11.049L145.216,363.76a8,8,0,0,0,8.353,12.085L176,371.359V480H136V424H120v56H72V380.522a21.864,21.864,0,0,1,14.026-20.5l36.873-14.34-5.8-14.912-36.873,14.34A37.763,37.763,0,0,0,56,380.522V488a8,8,0,0,0,8,8H448a8,8,0,0,0,8-8V424H440v56H392V424H376v56H336V371.359l22.431,4.486a8,8,0,0,0,8.353-12.085l-22.095-35.353,81.285,31.611A21.864,21.864,0,0,1,440,380.522V408ZM227.952,360.968l21.734,27.944a8,8,0,0,0,12.628,0l21.734-27.944L296,363.359V480H216V363.359Zm45.9-14.09a8.013,8.013,0,0,0-1.626,3.226L256,370.969,239.772,350.1a8.013,8.013,0,0,0-1.626-3.226L224.9,330.989l-16.2-20.826,9.971-39.888L236.2,287.8a28.034,28.034,0,0,0,39.6,0l17.523-17.524,9.971,39.888-16.2,20.826Zm-37.712-81.765L256,250.043l19.858,15.07-11.373,11.372a12.011,12.011,0,0,1-16.97,0ZM320,112.382V128h-3.056l-7.809-15.618ZM352,146v28a2,2,0,0,1-2,2H336V144h14A2,2,0,0,1,352,146ZM182.965,87.894a11.9,11.9,0,0,1,7.318-5.94L200,79.178v5.2A27.843,27.843,0,0,0,202.526,96H181.842A11.88,11.88,0,0,1,182.965,87.894ZM203.056,112l-8,16H192V112ZM162,176a2,2,0,0,1-2-2V146a2,2,0,0,1,2-2h14v32Zm30,39.159V144h8a8,8,0,0,0,7.155-4.422L220.944,112h2.429a28.123,28.123,0,0,0,4.627.382h63.247l13.6,27.2A8,8,0,0,0,312,144h8v70.8a11.984,11.984,0,0,1-4.19,9.111l-31.828,27.281-23.146-17.566a8,8,0,0,0-9.672,0L227.94,251.252,196.229,224.3A11.976,11.976,0,0,1,192,215.159Zm.238,103.554,1.216-.472,18.993,22.792,4.522,5.815-48.36,9.672ZM192,480V368.159l8-1.6V480Zm128,0h-8V366.559l8,1.6Zm23.391-123.48-48.36-9.672,4.522-5.815,18.994-22.792,1.215.472Z"></path><rect width="16" height="24" x="280" y="144"></rect><rect width="16" height="24" x="216" y="144"></rect><path d="M233.39,228.5a25.98,25.98,0,0,0,15.648-5.274L256,218l6.962,5.221A26.234,26.234,0,0,0,303.59,210.53l-15.18-5.06a10.233,10.233,0,0,1-15.848,4.951L260.8,201.6a8,8,0,0,0-9.6,0l-11.762,8.821a10.233,10.233,0,0,1-15.848-4.951l-15.18,5.06a25.957,25.957,0,0,0,17.067,16.745A26.518,26.518,0,0,0,233.39,228.5Z"></path><rect width="16" height="16" x="248" y="408"></rect><rect width="16" height="16" x="248" y="448"></rect></g></svg>